Normalized EMG Linear Envelopes
nRows=243
nColumns=4

endheader
time	 med_gas_r	  soleus_r	 tib_ant_r	
2.79435	  0.007219	  0.024208	  0.002446	
2.82762	  0.007118	  0.024865	  0.002642	
2.86089	  0.007093	  0.025304	  0.002911	
2.89415	  0.007128	  0.025545	  0.003290	
2.92742	  0.007209	  0.025475	  0.003782	
2.96069	  0.007323	  0.025055	  0.004347	
2.99395	  0.007455	  0.024420	  0.004876	
3.02722	  0.007580	  0.023676	  0.005179	
3.06048	  0.007640	  0.022858	  0.005067	
3.09375	  0.007623	  0.022019	  0.004616	
3.12702	  0.007565	  0.021191	  0.004003	
3.16028	  0.007527	  0.020406	  0.003374	
3.19355	  0.007563	  0.019690	  0.002818	
3.22681	  0.007667	  0.019113	  0.002369	
3.26008	  0.007761	  0.018744	  0.002035	
3.29335	  0.007762	  0.018630	  0.001808	
3.32661	  0.007757	  0.018672	  0.001675	
3.35988	  0.007831	  0.018743	  0.001615	
3.39315	  0.007988	  0.018777	  0.001600	
3.42641	  0.008209	  0.018819	  0.001611	
3.45968	  0.008423	  0.018926	  0.001637	
3.49294	  0.008526	  0.019100	  0.001670	
3.52621	  0.008445	  0.019294	  0.001702	
3.55948	  0.008240	  0.019498	  0.001725	
3.59274	  0.007997	  0.019712	  0.001738	
3.62601	  0.007739	  0.019915	  0.001747	
3.65927	  0.007456	  0.020052	  0.001758	
3.69254	  0.007169	  0.020049	  0.001778	
3.72581	  0.006939	  0.019962	  0.001809	
3.75907	  0.006779	  0.019876	  0.001846	
3.79234	  0.006691	  0.019850	  0.001879	
3.8256	  0.006690	  0.020001	  0.001894	
3.85887	  0.006774	  0.020445	  0.001885	
3.89214	  0.006906	  0.021260	  0.001862	
3.9254	  0.007032	  0.022401	  0.001835	
3.95867	  0.007137	  0.023699	  0.001814	
3.99194	  0.007232	  0.024949	  0.001806	
4.0252	  0.007308	  0.025932	  0.001814	
4.05847	  0.007341	  0.026374	  0.001842	
4.09173	  0.007364	  0.026082	  0.001897	
4.125	  0.007432	  0.025263	  0.001981	
4.15827	  0.007554	  0.024241	  0.002092	
4.19153	  0.007694	  0.023329	  0.002228	
4.2248	  0.007821	  0.022686	  0.002377	
4.25806	  0.007914	  0.022275	  0.002507	
4.29133	  0.008020	  0.022028	  0.002573	
4.3246	  0.008249	  0.021933	  0.002514	
4.35786	  0.008647	  0.021932	  0.002253	
4.39113	  0.009189	  0.021967	  0.001706	
4.4244	  0.009797	  0.021975	  0.000786	
4.45766	  0.010327	  0.021803	 -0.000582	
4.49093	  0.010561	  0.021340	 -0.002443	
4.52419	  0.010394	  0.020531	 -0.004771	
4.55746	  0.009899	  0.019277	 -0.007412	
4.59073	  0.009235	  0.017599	 -0.010013	
4.62399	  0.008550	  0.015927	 -0.011944	
4.65726	  0.007981	  0.014873	 -0.012234	
4.69052	  0.007687	  0.015068	 -0.009525	
4.72379	  0.007821	  0.017214	 -0.002065	
4.75706	  0.008530	  0.022185	  0.012210	
4.79032	  0.009970	  0.031133	  0.035451	
4.82359	  0.012244	  0.045159	  0.069456	
4.85685	  0.015343	  0.064897	  0.114976	
4.89012	  0.019147	  0.090208	  0.170703	
4.92339	  0.023327	  0.119706	  0.232046	
4.95665	  0.027326	  0.150278	  0.292389	
4.98992	  0.030768	  0.178009	  0.347738	
5.02319	  0.033492	  0.198556	  0.396142	
5.05645	  0.035621	  0.209243	  0.440375	
5.08972	  0.037320	  0.212082	  0.480092	
5.12298	  0.038648	  0.211835	  0.514476	
5.15625	  0.039840	  0.213504	  0.547125	
5.18952	  0.041050	  0.220942	  0.581869	
5.22278	  0.042287	  0.236777	  0.618060	
5.25605	  0.043849	  0.264022	  0.656174	
5.28931	  0.045920	  0.303046	  0.695843	
5.32258	  0.048533	  0.350040	  0.736701	
5.35585	  0.051577	  0.399297	  0.778530	
5.38911	  0.054732	  0.445701	  0.817728	
5.42238	  0.057620	  0.486812	  0.851827	
5.45565	  0.059924	  0.516626	  0.878089	
5.48891	  0.061469	  0.529473	  0.893473	
5.52218	  0.062411	  0.525784	  0.901167	
5.55544	  0.063133	  0.508515	  0.902406	
5.58871	  0.063776	  0.483398	  0.895242	
5.62198	  0.064228	  0.456050	  0.878159	
5.65524	  0.064510	  0.431244	  0.851889	
5.68851	  0.064687	  0.411743	  0.822247	
5.72177	  0.064641	  0.398137	  0.795388	
5.75504	  0.064471	  0.388616	  0.776978	
5.78831	  0.064516	  0.382546	  0.768855	
5.82157	  0.065017	  0.379927	  0.768750	
5.85484	  0.065884	  0.380586	  0.776481	
5.8881	  0.066791	  0.384971	  0.791373	
5.92137	  0.067197	  0.391443	  0.812551	
5.95464	  0.066929	  0.400195	  0.837555	
5.9879	  0.066742	  0.411983	  0.867088	
6.02117	  0.067179	  0.424689	  0.899676	
6.05444	  0.068476	  0.438364	  0.930588	
6.0877	  0.070875	  0.454620	  0.954914	
6.12097	  0.074064	  0.471610	  0.970650	
6.15423	  0.077378	  0.484796	  0.982677	
6.1875	  0.079977	  0.489874	  0.990394	
6.22077	  0.080947	  0.485559	  0.991515	
6.25403	  0.080145	  0.471652	  0.985813	
6.2873	  0.078311	  0.450781	  0.979588	
6.32056	  0.076216	  0.427515	  0.977309	
6.35383	  0.074385	  0.405911	  0.977895	
6.3871	  0.073292	  0.387347	  0.980318	
6.42036	  0.073021	  0.372955	  0.981198	
6.45363	  0.073145	  0.363484	  0.983405	
6.4869	  0.072765	  0.357017	  0.987980	
6.52016	  0.071259	  0.351144	  0.992358	
6.55343	  0.068932	  0.343389	  0.991067	
6.58669	  0.066285	  0.331269	  0.979398	
6.61996	  0.063566	  0.315617	  0.955451	
6.65323	  0.061080	  0.299297	  0.924989	
6.68649	  0.058762	  0.285284	  0.896707	
6.71976	  0.056467	  0.276281	  0.876530	
6.75302	  0.054339	  0.273609	  0.863723	
6.78629	  0.052759	  0.276859	  0.857150	
6.81956	  0.051941	  0.283327	  0.855089	
6.85282	  0.051672	  0.290579	  0.854526	
6.88609	  0.051733	  0.297916	  0.854049	
6.91935	  0.052196	  0.304082	  0.854428	
6.95262	  0.053081	  0.309189	  0.856572	
6.98589	  0.054074	  0.315041	  0.861897	
7.01915	  0.054980	  0.325006	  0.872010	
7.05242	  0.055877	  0.339474	  0.886552	
7.08569	  0.056977	  0.356660	  0.903297	
7.11895	  0.058412	  0.377019	  0.923172	
7.15222	  0.059952	  0.399068	  0.946472	
7.18548	  0.061261	  0.417949	  0.968657	
7.21875	  0.062334	  0.431171	  0.985798	
7.25202	  0.063227	  0.438182	  0.996201	
7.28528	  0.063962	  0.438509	  1.000000	
7.31855	  0.064410	  0.433388	  0.995680	
7.35181	  0.064370	  0.426663	  0.981823	
7.38508	  0.063698	  0.421857	  0.959819	
7.41835	  0.062673	  0.419998	  0.932441	
7.45161	  0.061851	  0.420485	  0.903125	
7.48488	  0.061714	  0.423209	  0.874843	
7.51815	  0.062512	  0.429209	  0.848653	
7.55141	  0.063894	  0.438452	  0.822278	
7.58468	  0.065336	  0.451549	  0.794778	
7.61794	  0.066456	  0.468154	  0.769978	
7.65121	  0.066959	  0.484974	  0.749132	
7.68448	  0.066847	  0.501374	  0.736632	
7.71774	  0.066265	  0.516927	  0.736242	
7.75101	  0.065522	  0.527690	  0.746690	
7.78427	  0.064607	  0.530003	  0.764484	
7.81754	  0.063537	  0.521243	  0.786288	
7.85081	  0.062189	  0.501706	  0.808171	
7.88407	  0.060635	  0.472980	  0.826248	
7.91734	  0.059237	  0.436728	  0.840142	
7.9506	  0.058212	  0.398016	  0.850761	
7.98387	  0.057795	  0.365963	  0.858816	
8.01714	  0.058015	  0.345849	  0.865320	
8.0504	  0.058691	  0.337954	  0.871752	
8.08367	  0.059587	  0.341638	  0.875980	
8.11694	  0.060705	  0.352959	  0.873426	
8.1502	  0.061999	  0.364780	  0.862263	
8.18347	  0.063235	  0.375390	  0.842079	
8.21673	  0.064180	  0.390628	  0.817120	
8.25	  0.064484	  0.413210	  0.791220	
8.28327	  0.064012	  0.442926	  0.765529	
8.31653	  0.063050	  0.477120	  0.742873	
8.3498	  0.061660	  0.510742	  0.724974	
8.38306	  0.060033	  0.538152	  0.709653	
8.41633	  0.058437	  0.556988	  0.695509	
8.4496	  0.056940	  0.564300	  0.683425	
8.48286	  0.055638	  0.555995	  0.675298	
8.51613	  0.054894	  0.533187	  0.672950	
8.5494	  0.054975	  0.503015	  0.680549	
8.58266	  0.055801	  0.474971	  0.697213	
8.61593	  0.056844	  0.455267	  0.717586	
8.64919	  0.057806	  0.446549	  0.736274	
8.68246	  0.058443	  0.446974	  0.752253	
8.71573	  0.058513	  0.451816	  0.766952	
8.74899	  0.057923	  0.460430	  0.780531	
8.78226	  0.056832	  0.474446	  0.790236	
8.81552	  0.055347	  0.490743	  0.793992	
8.84879	  0.053803	  0.505485	  0.795575	
8.88206	  0.052574	  0.515627	  0.797147	
8.91532	  0.051906	  0.519091	  0.800737	
8.94859	  0.051960	  0.519435	  0.810306	
8.98185	  0.052497	  0.520861	  0.824985	
9.01512	  0.053249	  0.525703	  0.838710	
9.04839	  0.054050	  0.532156	  0.845054	
9.08165	  0.054649	  0.537915	  0.841438	
9.11492	  0.054982	  0.542009	  0.830586	
9.14819	  0.055136	  0.540674	  0.816121	
9.18145	  0.055078	  0.529548	  0.801957	
9.21472	  0.054650	  0.509959	  0.790879	
9.24798	  0.053957	  0.488488	  0.785347	
9.28125	  0.053251	  0.473039	  0.784416	
9.31452	  0.052671	  0.465403	  0.785392	
9.34778	  0.052225	  0.465750	  0.785171	
9.38105	  0.051976	  0.473725	  0.782761	
9.41431	  0.051991	  0.486377	  0.777506	
9.44758	  0.052163	  0.499104	  0.770150	
9.48085	  0.052300	  0.508100	  0.763319	
9.51411	  0.052125	  0.509876	  0.756466	
9.54738	  0.051465	  0.498614	  0.747080	
9.58065	  0.050194	  0.470857	  0.731963	
9.61391	  0.048294	  0.428837	  0.707086	
9.64718	  0.045696	  0.378898	  0.670956	
9.68044	  0.042498	  0.327647	  0.624231	
9.71371	  0.039057	  0.279024	  0.570035	
9.74698	  0.035742	  0.236779	  0.513955	
9.78024	  0.032645	  0.203441	  0.458446	
9.81351	  0.029824	  0.179244	  0.405513	
9.84677	  0.027291	  0.162617	  0.356066	
9.88004	  0.025048	  0.149563	  0.310785	
9.91331	  0.023103	  0.136329	  0.270702	
9.94657	  0.021298	  0.121961	  0.232888	
9.97984	  0.019541	  0.107726	  0.195735	
10.0131	  0.017791	  0.094567	  0.160485	
10.0464	  0.016092	  0.082748	  0.129188	
10.0796	  0.014489	  0.072076	  0.102248	
10.1129	  0.013087	  0.062336	  0.079142	
10.1462	  0.012001	  0.054008	  0.059710	
10.1794	  0.011230	  0.047023	  0.043849	
10.2127	  0.010679	  0.041225	  0.030945	
10.246	  0.010291	  0.036704	  0.020776	
10.2792	  0.010067	  0.033500	  0.013265	
10.3125	  0.010009	  0.031585	  0.008117	
10.3458	  0.010081	  0.030778	  0.004863	
10.379	  0.010206	  0.030826	  0.003051	
10.4123	  0.010405	  0.031649	  0.002273	
10.4456	  0.010719	  0.032987	  0.002147	
10.4788	  0.011078	  0.034369	  0.002377	
10.5121	  0.011294	  0.035053	  0.002732	
10.5454	  0.011178	  0.034431	  0.003021	
10.5786	  0.010714	  0.032803	  0.003129	
10.6119	  0.010025	  0.030697	  0.003087	
10.6452	  0.009265	  0.028504	  0.002959	
10.6784	  0.008575	  0.026550	  0.002812	
10.7117	  0.008014	  0.025037	  0.002691	
10.745	  0.007583	  0.024071	  0.002612	
10.7782	  0.007298	  0.023659	  0.002575	
10.8115	  0.007157	  0.023835	  0.002582	
10.8448	  0.007138	  0.024664	  0.002632	
